<mxfile host="app.diagrams.net" modified="2023-04-27T06:44:24.425Z" agent="5.0 (Windows NT 10.0; Win64; x64) AppleWebKit/537.36 (KHTML, like Gecko) Chrome/104.0.0.0 Safari/537.36" etag="vA91I4PAlxCp7feKlXyP" version="20.8.22" type="github">
  <diagram name="第 1 页" id="hpwauvcPhhMmQ36-UDhm">
    <mxGraphModel dx="2120" dy="2088" grid="1" gridSize="10" guides="1" tooltips="1" connect="1" arrows="1" fold="1" page="1" pageScale="1" pageWidth="827" pageHeight="1169" math="0" shadow="0">
      <root>
        <mxCell id="0" />
        <mxCell id="1" parent="0" />
        <mxCell id="VWQwmcBHN6LTqyTXMJ5c-11" value="&lt;b&gt;GmsCore&lt;/b&gt;" style="rounded=1;whiteSpace=wrap;html=1;fontSize=15;fillColor=#cce5ff;strokeColor=#36393d;" parent="1" vertex="1">
          <mxGeometry x="155" y="-900" width="170" height="40" as="geometry" />
        </mxCell>
        <mxCell id="VWQwmcBHN6LTqyTXMJ5c-12" value="&lt;b&gt;Binder&lt;/b&gt;" style="text;html=1;resizable=0;autosize=1;align=center;verticalAlign=middle;points=[];fillColor=none;strokeColor=none;rounded=0;fontSize=15;rotation=0;" parent="1" vertex="1">
          <mxGeometry x="429" y="-730" width="70" height="30" as="geometry" />
        </mxCell>
        <mxCell id="VWQwmcBHN6LTqyTXMJ5c-13" value="&lt;b&gt;HIDL&lt;/b&gt;" style="text;html=1;resizable=0;autosize=1;align=center;verticalAlign=middle;points=[];fillColor=none;strokeColor=none;rounded=0;fontSize=15;rotation=0;" parent="1" vertex="1">
          <mxGeometry x="434" y="-400" width="60" height="30" as="geometry" />
        </mxCell>
        <mxCell id="VWQwmcBHN6LTqyTXMJ5c-21" value="&lt;b&gt;Application Layer (APP)&lt;/b&gt;" style="rounded=1;whiteSpace=wrap;html=1;fontSize=15;fillColor=#FF6666;strokeColor=#36393d;" parent="1" vertex="1">
          <mxGeometry x="160" y="-810" width="500" height="30" as="geometry" />
        </mxCell>
        <mxCell id="VWQwmcBHN6LTqyTXMJ5c-22" value="&lt;b&gt;3P Apps&lt;/b&gt;" style="rounded=1;whiteSpace=wrap;html=1;fontSize=15;fillColor=#cce5ff;strokeColor=#36393d;" parent="1" vertex="1">
          <mxGeometry x="494" y="-900" width="170" height="40" as="geometry" />
        </mxCell>
        <mxCell id="JdaUosknzpae1LoKPj3R-1" value="&lt;b&gt;Packages:android.bluetooth &amp;amp; android.bluetooth.le&lt;/b&gt;" style="rounded=1;whiteSpace=wrap;html=1;fontSize=15;fillColor=#E6FFCC;strokeColor=#36393d;" vertex="1" parent="1">
          <mxGeometry x="160" y="-770" width="500" height="30" as="geometry" />
        </mxCell>
        <mxCell id="JdaUosknzpae1LoKPj3R-2" value="&lt;b&gt;Bluetooth Service&lt;/b&gt;" style="rounded=1;whiteSpace=wrap;html=1;fontSize=15;fillColor=#FF6666;strokeColor=#36393d;" vertex="1" parent="1">
          <mxGeometry x="160" y="-700" width="500" height="30" as="geometry" />
        </mxCell>
        <mxCell id="JdaUosknzpae1LoKPj3R-3" value="&lt;b&gt;Packages:com.android.Bluetooth.&lt;/b&gt;" style="rounded=1;whiteSpace=wrap;html=1;fontSize=15;fillColor=#E6FFCC;strokeColor=#36393d;" vertex="1" parent="1">
          <mxGeometry x="160" y="-660" width="500" height="30" as="geometry" />
        </mxCell>
        <mxCell id="JdaUosknzpae1LoKPj3R-6" value="&lt;b&gt;JNI&lt;/b&gt;" style="rounded=1;whiteSpace=wrap;html=1;fontSize=15;fillColor=#FF6666;strokeColor=#36393d;" vertex="1" parent="1">
          <mxGeometry x="160" y="-590" width="500" height="30" as="geometry" />
        </mxCell>
        <mxCell id="JdaUosknzpae1LoKPj3R-7" value="&lt;b&gt;Packages/apps/Bluetooth/jni&lt;/b&gt;" style="rounded=1;whiteSpace=wrap;html=1;fontSize=15;fillColor=#E6FFCC;strokeColor=#36393d;" vertex="1" parent="1">
          <mxGeometry x="160" y="-550" width="500" height="30" as="geometry" />
        </mxCell>
        <mxCell id="JdaUosknzpae1LoKPj3R-8" value="&lt;b&gt;Bluetooth Stack&lt;/b&gt;" style="rounded=1;whiteSpace=wrap;html=1;fontSize=15;fillColor=#FF6666;strokeColor=#36393d;" vertex="1" parent="1">
          <mxGeometry x="160" y="-480" width="500" height="30" as="geometry" />
        </mxCell>
        <mxCell id="JdaUosknzpae1LoKPj3R-9" value="&lt;b&gt;system/bt&lt;/b&gt;" style="rounded=1;whiteSpace=wrap;html=1;fontSize=15;fillColor=#E6FFCC;strokeColor=#36393d;" vertex="1" parent="1">
          <mxGeometry x="160" y="-440" width="500" height="30" as="geometry" />
        </mxCell>
        <mxCell id="JdaUosknzpae1LoKPj3R-11" value="&lt;b&gt;HIDL Interfaces&lt;/b&gt;" style="rounded=1;whiteSpace=wrap;html=1;fontSize=15;fillColor=#FF6666;strokeColor=#36393d;" vertex="1" parent="1">
          <mxGeometry x="160" y="-370" width="500" height="30" as="geometry" />
        </mxCell>
        <mxCell id="JdaUosknzpae1LoKPj3R-12" value="&lt;b&gt;hardware/interfaces/bluetooth&lt;/b&gt;" style="rounded=1;whiteSpace=wrap;html=1;fontSize=15;fillColor=#E6FFCC;strokeColor=#36393d;" vertex="1" parent="1">
          <mxGeometry x="160" y="-330" width="500" height="30" as="geometry" />
        </mxCell>
        <mxCell id="JdaUosknzpae1LoKPj3R-13" value="&lt;b&gt;Vendor Implementation&lt;/b&gt;" style="rounded=1;whiteSpace=wrap;html=1;fontSize=15;fillColor=#99FF99;strokeColor=#36393d;" vertex="1" parent="1">
          <mxGeometry x="160" y="-260" width="500" height="30" as="geometry" />
        </mxCell>
        <mxCell id="JdaUosknzpae1LoKPj3R-14" value="&lt;b&gt;Bluetooth Controller&lt;/b&gt;" style="rounded=1;whiteSpace=wrap;html=1;fontSize=15;fillColor=#E6FFCC;strokeColor=#36393d;" vertex="1" parent="1">
          <mxGeometry x="160" y="-220" width="500" height="30" as="geometry" />
        </mxCell>
        <mxCell id="JdaUosknzpae1LoKPj3R-15" value="" style="endArrow=classic;startArrow=classic;html=1;rounded=0;" edge="1" parent="1">
          <mxGeometry width="50" height="50" relative="1" as="geometry">
            <mxPoint x="540" y="-810" as="sourcePoint" />
            <mxPoint x="590" y="-860" as="targetPoint" />
          </mxGeometry>
        </mxCell>
        <mxCell id="JdaUosknzpae1LoKPj3R-16" value="" style="endArrow=classic;startArrow=classic;html=1;rounded=0;exitX=0.25;exitY=0;exitDx=0;exitDy=0;" edge="1" parent="1" source="VWQwmcBHN6LTqyTXMJ5c-21">
          <mxGeometry width="50" height="50" relative="1" as="geometry">
            <mxPoint x="180" y="-810" as="sourcePoint" />
            <mxPoint x="230" y="-860" as="targetPoint" />
          </mxGeometry>
        </mxCell>
        <mxCell id="JdaUosknzpae1LoKPj3R-22" value="" style="endArrow=classic;startArrow=classic;html=1;rounded=0;" edge="1" parent="1">
          <mxGeometry width="50" height="50" relative="1" as="geometry">
            <mxPoint x="400" y="-700" as="sourcePoint" />
            <mxPoint x="400" y="-740" as="targetPoint" />
          </mxGeometry>
        </mxCell>
        <mxCell id="JdaUosknzpae1LoKPj3R-23" value="" style="endArrow=classic;startArrow=classic;html=1;rounded=0;" edge="1" parent="1">
          <mxGeometry width="50" height="50" relative="1" as="geometry">
            <mxPoint x="400" y="-590" as="sourcePoint" />
            <mxPoint x="400" y="-630" as="targetPoint" />
          </mxGeometry>
        </mxCell>
        <mxCell id="JdaUosknzpae1LoKPj3R-24" value="" style="endArrow=classic;startArrow=classic;html=1;rounded=0;" edge="1" parent="1">
          <mxGeometry width="50" height="50" relative="1" as="geometry">
            <mxPoint x="400" y="-480" as="sourcePoint" />
            <mxPoint x="400" y="-520" as="targetPoint" />
          </mxGeometry>
        </mxCell>
        <mxCell id="JdaUosknzpae1LoKPj3R-25" value="" style="endArrow=classic;startArrow=classic;html=1;rounded=0;" edge="1" parent="1">
          <mxGeometry width="50" height="50" relative="1" as="geometry">
            <mxPoint x="400" y="-370" as="sourcePoint" />
            <mxPoint x="400" y="-410" as="targetPoint" />
          </mxGeometry>
        </mxCell>
        <mxCell id="JdaUosknzpae1LoKPj3R-26" value="" style="endArrow=classic;startArrow=classic;html=1;rounded=0;" edge="1" parent="1">
          <mxGeometry width="50" height="50" relative="1" as="geometry">
            <mxPoint x="400" y="-260" as="sourcePoint" />
            <mxPoint x="400" y="-300" as="targetPoint" />
          </mxGeometry>
        </mxCell>
      </root>
    </mxGraphModel>
  </diagram>
</mxfile>
